<svg version="1.2" xmlns="http://www.w3.org/2000/svg" viewBox="0 0 16 16" width="16" height="16">
	<title>brokenclouds-svg</title>
	<style>
		.s0 { fill: #ffffff } 
	</style>
	<path id="Layer" class="s0" d="m16 7.5q0 0.4-0.1 0.7-0.1 0.3-0.3 0.6-0.2 0.4-0.5 0.6-0.2 0.2-0.6 0.4 0-0.1-0.1-0.3-0.1-0.1-0.2-0.2 0-0.1-0.1-0.2-0.1-0.1-0.2-0.2c0.4-0.1 0.7-0.3 0.9-0.7 0.2-0.3 0.3-0.7 0.1-1.1-0.1-0.4-0.3-0.7-0.7-0.9-0.3-0.2-0.7-0.3-1.1-0.1q-0.1 0-0.2 0-0.1-0.1-0.2-0.1-0.1-0.1-0.2-0.2 0-0.1 0-0.2c-0.1-0.5-0.3-1.1-0.7-1.5-0.4-0.5-0.9-0.8-1.4-1-0.6-0.1-1.1-0.1-1.7 0-0.6 0.2-1.1 0.5-1.4 0.9q-0.2 0-0.4 0-0.1 0-0.3 0-0.1 0-0.3 0-0.2 0.1-0.3 0.1c0.4-0.7 1-1.3 1.7-1.7 0.7-0.3 1.5-0.5 2.3-0.4 0.8 0.1 1.5 0.5 2.1 1 0.6 0.5 1.1 1.2 1.3 2q0.5 0 1 0.2 0.4 0.1 0.8 0.5 0.4 0.3 0.6 0.8 0.2 0.5 0.2 1z"/>
	<path id="Layer" fill-rule="evenodd" class="s0" d="m7 5q0.8 0 1.6 0.3 0.8 0.3 1.4 0.8 0.6 0.6 1 1.3 0.4 0.8 0.5 1.6c0.7 0 1.3 0.3 1.8 0.7 0.4 0.5 0.7 1.1 0.7 1.8 0 0.7-0.3 1.3-0.7 1.8-0.5 0.4-1.1 0.7-1.8 0.7h-8.5c-0.8 0-1.5-0.3-2.1-0.8-0.5-0.6-0.9-1.3-0.9-2.1 0-0.8 0.2-1.5 0.8-2.1 0.5-0.6 1.2-0.9 2-1q0.2-0.6 0.6-1.2 0.4-0.6 1-1 0.6-0.4 1.2-0.6 0.7-0.2 1.4-0.2zm3.5 4.5c0-0.9-0.3-1.7-0.9-2.3-0.5-0.7-1.3-1.1-2.2-1.2-0.8-0.1-1.7 0.1-2.4 0.6-0.7 0.5-1.2 1.2-1.4 2q0 0.1-0.1 0.2 0 0.1-0.1 0.1 0 0.1-0.1 0.1-0.1 0-0.2 0c-0.5 0-1.1 0.2-1.5 0.5-0.3 0.4-0.6 0.9-0.6 1.5 0 0.5 0.2 1 0.6 1.4 0.3 0.4 0.9 0.6 1.4 0.6h8.5c0.4 0 0.8-0.2 1.1-0.5 0.3-0.3 0.4-0.8 0.4-1.2-0.1-0.4-0.3-0.8-0.7-1-0.3-0.3-0.8-0.4-1.2-0.3q-0.1 0.1-0.2 0.1-0.1-0.1-0.2-0.1-0.1-0.1-0.2-0.2 0-0.1 0-0.2z"/>
</svg>