<svg version="1.2" xmlns="http://www.w3.org/2000/svg" viewBox="0 0 16 16" width="16" height="16">
	<title>clearsky-svg</title>
	<style>
		.s0 { fill: #ffffff } 
	</style>
	<path id="Layer" fill-rule="evenodd" class="s0" d="m5.2 10.8c-0.8-0.7-1.2-1.7-1.2-2.8 0-1.1 0.4-2.1 1.2-2.8 0.7-0.8 1.7-1.2 2.8-1.2 1.1 0 2.1 0.4 2.8 1.2 0.8 0.7 1.2 1.7 1.2 2.8 0 1.1-0.4 2.1-1.2 2.8-0.7 0.8-1.7 1.2-2.8 1.2-1.1 0-2.1-0.4-2.8-1.2zm4.9-0.7c0.6-0.5 0.9-1.3 0.9-2.1 0-0.8-0.3-1.6-0.9-2.1-0.5-0.6-1.3-0.9-2.1-0.9-0.8 0-1.6 0.3-2.1 0.9-0.6 0.5-0.9 1.3-0.9 2.1 0 0.8 0.3 1.6 0.9 2.1 0.5 0.6 1.3 0.9 2.1 0.9 0.8 0 1.6-0.3 2.1-0.9zm-2.1-10.1q0.1 0 0.2 0 0.1 0.1 0.2 0.1 0 0.1 0.1 0.2 0 0.1 0 0.2v2q0 0.2-0.1 0.4-0.2 0.1-0.4 0.1-0.2 0-0.4-0.1-0.1-0.2-0.1-0.4v-2q0-0.1 0-0.2 0.1-0.1 0.1-0.2 0.1 0 0.2-0.1 0.1 0 0.2 0zm0 13q0.1 0 0.2 0 0.1 0.1 0.2 0.1 0 0.1 0.1 0.2 0 0.1 0 0.2v2q0 0.2-0.1 0.4-0.2 0.1-0.4 0.1-0.2 0-0.4-0.1-0.1-0.2-0.1-0.4v-2q0-0.1 0-0.2 0.1-0.1 0.1-0.2 0.1 0 0.2-0.1 0.1 0 0.2 0zm8-5q0 0.1 0 0.2-0.1 0.1-0.1 0.2-0.1 0-0.2 0.1-0.1 0-0.2 0h-2q-0.2 0-0.4-0.1-0.1-0.2-0.1-0.4 0-0.2 0.1-0.4 0.2-0.1 0.4-0.1h2q0.1 0 0.2 0 0.1 0.1 0.2 0.1 0 0.1 0.1 0.2 0 0.1 0 0.2zm-13 0q0 0.1 0 0.2-0.1 0.1-0.1 0.2-0.1 0-0.2 0.1-0.1 0-0.2 0h-2q-0.2 0-0.4-0.1-0.1-0.2-0.1-0.4 0-0.2 0.1-0.4 0.2-0.1 0.4-0.1h2q0.1 0 0.2 0 0.1 0.1 0.2 0.1 0 0.1 0.1 0.2 0 0.1 0 0.2zm10.7-5.7q0 0.1 0.1 0.2 0 0.1 0 0.2 0 0.1 0 0.2-0.1 0.1-0.1 0.1l-1.5 1.5q-0.1 0.1-0.3 0.1-0.2 0-0.4-0.1-0.1-0.2-0.1-0.4 0-0.2 0.1-0.3l1.4-1.5q0.1 0 0.2-0.1 0.1 0 0.2 0 0.1 0 0.2 0 0.1 0.1 0.2 0.1zm-9.2 9.2q0 0.1 0.1 0.2 0 0.1 0 0.2 0 0.1 0 0.2-0.1 0.1-0.1 0.1l-1.5 1.5q-0.1 0.1-0.3 0.1-0.2 0-0.4-0.1-0.1-0.2-0.1-0.4 0-0.2 0.1-0.4l1.5-1.4q0 0 0.1-0.1 0.1 0 0.2 0 0.1 0 0.2 0 0.1 0.1 0.2 0.1zm9.2 2.2q-0.1 0-0.2 0.1-0.1 0-0.2 0-0.1 0-0.2 0-0.1-0.1-0.2-0.1l-1.4-1.5q-0.1-0.1-0.1-0.3 0-0.2 0.1-0.4 0.2-0.1 0.4-0.1 0.2 0 0.3 0.1l1.5 1.4q0 0.1 0.1 0.2 0 0.1 0 0.2 0 0.1 0 0.2-0.1 0.1-0.1 0.2zm-9.2-9.2q-0.1 0-0.2 0.1-0.1 0-0.2 0-0.1 0-0.2 0-0.1-0.1-0.1-0.1l-1.5-1.5q-0.1-0.1-0.1-0.3 0-0.2 0.1-0.4 0.2-0.1 0.4-0.1 0.2 0 0.3 0.1l1.5 1.5q0 0 0.1 0.1 0 0.1 0 0.2 0 0.1 0 0.2-0.1 0.1-0.1 0.2z"/>
</svg>