<svg version="1.2" xmlns="http://www.w3.org/2000/svg" viewBox="0 0 16 16" width="16" height="16">
	<title>fewclouds-svg</title>
	<style>
		.s0 { fill: #ffffff } 
	</style>
	<path id="Layer" fill-rule="evenodd" class="s0" d="m11.5 11c0.7 0 1.3 0.3 1.8 0.7 0.4 0.5 0.7 1.1 0.7 1.8 0 0.7-0.3 1.3-0.7 1.8-0.5 0.4-1.1 0.7-1.8 0.7h-8.5c-0.8 0-1.5-0.3-2.1-0.8-0.5-0.6-0.9-1.3-0.9-2.1 0-0.8 0.2-1.5 0.8-2.1 0.5-0.6 1.2-0.9 2-1 0.3-1 0.9-1.8 1.8-2.3 0.9-0.6 1.9-0.8 2.9-0.7 1 0.1 2 0.6 2.7 1.3 0.7 0.7 1.2 1.7 1.3 2.7zm-5.7-2.8q-0.5 0.2-1 0.5-0.4 0.4-0.8 0.9-0.3 0.5-0.4 1 0 0.1-0.1 0.2 0 0.1-0.1 0.1-0.1 0.1-0.2 0.1 0 0-0.1 0c-0.6 0-1.1 0.2-1.5 0.5-0.4 0.4-0.6 0.9-0.6 1.5 0 0.5 0.2 1 0.5 1.4 0.4 0.4 0.9 0.6 1.5 0.6h8.5q0.3 0 0.5-0.1 0.3-0.1 0.5-0.3 0.2-0.3 0.4-0.5 0.1-0.3 0.1-0.6 0-0.3-0.2-0.7-0.1-0.3-0.4-0.5-0.3-0.2-0.6-0.3-0.4 0-0.7 0-0.1 0.1-0.2 0.1-0.1-0.1-0.2-0.1-0.1-0.1-0.2-0.2 0-0.1 0-0.2 0-0.7-0.3-1.4-0.2-0.7-0.7-1.2-0.5-0.5-1.2-0.7-0.6-0.3-1.3-0.3-0.6 0-1.2 0.2z"/>
	<path id="Layer" class="s0" d="m10.5 2.5q0 0.2-0.1 0.4-0.2 0.1-0.4 0.1-0.2 0-0.4-0.1-0.1-0.2-0.1-0.4v-1q0-0.2 0.1-0.4 0.2-0.1 0.4-0.1 0.2 0 0.4 0.1 0.1 0.2 0.1 0.4zm3 1.7q-0.1 0.1-0.3 0.1-0.2 0-0.4-0.1-0.1-0.2-0.1-0.4 0-0.2 0.1-0.3l0.7-0.7q0.2-0.2 0.4-0.2 0.2 0 0.3 0.2 0.2 0.1 0.2 0.3 0 0.2-0.2 0.4zm-6.3-0.7q0.1 0.1 0.1 0.3 0 0.2-0.1 0.4-0.2 0.1-0.4 0.1-0.2 0-0.3-0.1l-0.7-0.7q-0.2-0.2-0.2-0.4 0-0.2 0.2-0.3 0.1-0.2 0.3-0.2 0.2 0 0.4 0.1zm0 2.6c0.3-0.9 1-1.6 1.8-1.9 0.9-0.3 1.9-0.1 2.7 0.4 0.7 0.5 1.2 1.3 1.3 2.3 0.1 0.9-0.3 1.8-1 2.4q-0.2-0.5-0.5-0.9c0.4-0.4 0.6-1 0.5-1.6-0.1-0.5-0.4-1.1-0.9-1.4-0.5-0.3-1.1-0.4-1.6-0.2-0.6 0.1-1.1 0.5-1.3 1q-0.5-0.1-1-0.1zm5.6 3.9q0-0.1 0.2-0.2 0.1-0.1 0.3 0 0.1 0 0.2 0.1l0.7 0.7q0.1 0.1 0.2 0.2 0 0.1 0 0.2 0 0.1-0.1 0.2 0 0.1-0.1 0.2c-0.4-0.5-0.9-0.9-1.5-1.1q0-0.2 0.1-0.3zm2.7-3.4q0.2 0 0.4 0.1 0.1 0.2 0.1 0.4 0 0.2-0.1 0.3-0.2 0.2-0.4 0.2h-1q-0.2 0-0.4-0.2-0.1-0.1-0.1-0.3 0-0.2 0.1-0.4 0.2-0.1 0.4-0.1z"/>
</svg>