<svg version="1.2" xmlns="http://www.w3.org/2000/svg" viewBox="0 0 16 16" width="16" height="16">
	<title>mist-svg</title>
	<style>
		.s0 { fill: #ffffff } 
	</style>
	<path id="Layer" fill-rule="evenodd" class="s0" d="m8.5 4q-0.6 0-1.2 0.2-0.6 0.2-1.1 0.6-0.6 0.3-0.9 0.8-0.4 0.5-0.6 1.1-0.1 0.2-0.2 0.3-0.2 0.1-0.4 0.1-0.2-0.1-0.3-0.3-0.1-0.2 0-0.4c0.3-1 1-1.9 1.9-2.5 0.9-0.7 2-1 3.1-0.9 1.1 0.1 2.2 0.5 3 1.2 0.8 0.8 1.4 1.7 1.6 2.8 0.8 0.1 1.4 0.5 1.9 1.1 0.5 0.6 0.7 1.3 0.7 2.1-0.1 0.8-0.4 1.5-0.9 2-0.6 0.5-1.3 0.8-2.1 0.8h-12.5q-0.2 0-0.4-0.1-0.1-0.2-0.1-0.4 0-0.2 0.1-0.4 0.2-0.1 0.4-0.1h12.5c0.5 0 1-0.2 1.4-0.6 0.4-0.4 0.6-0.9 0.6-1.4 0-0.5-0.2-1-0.6-1.4-0.4-0.4-0.9-0.6-1.4-0.6q-0.1 0-0.2 0-0.1-0.1-0.2-0.1 0-0.1-0.1-0.2 0-0.1 0-0.1-0.1-0.8-0.4-1.4-0.4-0.7-0.9-1.2-0.6-0.5-1.3-0.7-0.7-0.3-1.4-0.3zm-8.5 4.5q0-0.1 0-0.2 0.1-0.1 0.1-0.2 0.1 0 0.2-0.1 0.1 0 0.2 0h7q0.2 0 0.4 0.1 0.1 0.2 0.1 0.4 0 0.2-0.1 0.4-0.2 0.1-0.4 0.1h-7q-0.1 0-0.2 0-0.1-0.1-0.2-0.1 0-0.1-0.1-0.2 0-0.1 0-0.2zm0 2q0-0.1 0-0.2 0.1-0.1 0.1-0.2 0.1 0 0.2-0.1 0.1 0 0.2 0h9q0.2 0 0.4 0.1 0.1 0.2 0.1 0.4 0 0.2-0.1 0.4-0.2 0.1-0.4 0.1h-9q-0.1 0-0.2 0-0.1-0.1-0.2-0.1 0-0.1-0.1-0.2 0-0.1 0-0.2z"/>
</svg>