<svg version="1.2" xmlns="http://www.w3.org/2000/svg" viewBox="0 0 16 16" width="16" height="16">
	<title>scatteredclouds-svg</title>
	<style>
		.s0 { fill: #ffffff } 
	</style>
	<path id="Layer" fill-rule="evenodd" class="s0" d="m4.4 3.3q0.4-0.3 0.8-0.5 0.4-0.3 0.9-0.5 0.4-0.1 0.9-0.2 0.5-0.1 1-0.1c2.7 0 4.9 2 5.2 4.6 1.6 0.2 2.8 1.5 2.8 3.2 0 1.8-1.5 3.2-3.3 3.2h-8.9c-2.1 0-3.8-1.6-3.8-3.7 0-1.7 1.3-3.2 2.9-3.6 0.2-0.8 0.7-1.7 1.5-2.4zm0.7 0.8c-0.8 0.7-1.2 1.4-1.2 2.1v0.4l-0.4 0.1c-1.4 0.1-2.5 1.3-2.5 2.6 0 1.5 1.2 2.7 2.8 2.7h8.9c1.3 0 2.3-1 2.3-2.2 0-1.2-1-2.3-2.3-2.3h-0.5v-0.5c0-2.2-1.9-4-4.2-4q-0.4 0-0.8 0.1-0.4 0-0.8 0.2-0.3 0.1-0.7 0.3-0.3 0.2-0.6 0.5z"/>
</svg>