<svg version="1.2" xmlns="http://www.w3.org/2000/svg" viewBox="0 0 16 16" width="16" height="16">
	<title>showerrain-svg</title>
	<style>
		.s0 { fill: #ffffff } 
	</style>
	<path id="Layer" fill-rule="evenodd" class="s0" d="m4.2 11q0.1 0.1 0.1 0.1 0.1 0.1 0.2 0.2 0 0.1 0 0.2 0 0.1 0 0.2l-1.5 4q-0.1 0.2-0.3 0.3-0.2 0.1-0.4 0-0.2-0.1-0.3-0.3 0-0.2 0-0.4l1.5-4q0.1-0.1 0.1-0.1 0.1-0.1 0.2-0.2 0.1 0 0.2 0 0.1 0 0.2 0zm3 0q0.1 0.1 0.1 0.1 0.1 0.1 0.2 0.2 0 0.1 0 0.2 0 0.1 0 0.2l-1.5 4q-0.1 0.2-0.3 0.3-0.2 0.1-0.4 0-0.2-0.1-0.3-0.3 0-0.2 0-0.4l1.5-4q0.1-0.1 0.1-0.1 0.1-0.1 0.2-0.2 0.1 0 0.2 0 0.1 0 0.2 0zm3 0q0.1 0.1 0.1 0.1 0.1 0.1 0.2 0.2 0 0.1 0 0.2 0 0.1 0 0.2l-1.5 4q-0.1 0.2-0.3 0.3-0.2 0.1-0.4 0-0.2-0.1-0.3-0.3 0-0.2 0-0.4l1.5-4q0.1-0.1 0.1-0.1 0.1-0.1 0.2-0.2 0.1 0 0.2 0 0.1 0 0.2 0zm3 0q0.1 0.1 0.1 0.1 0.1 0.1 0.2 0.2 0 0.1 0 0.2 0 0.1 0 0.2l-1.5 4q-0.1 0.2-0.3 0.2-0.2 0.1-0.4 0.1-0.2-0.1-0.2-0.3-0.1-0.2-0.1-0.4l1.5-4q0.1-0.1 0.1-0.1 0.1-0.1 0.2-0.2 0.1 0 0.2 0 0.1 0 0.2 0zm2.1-5.9c0.5 0.6 0.7 1.3 0.7 2.1-0.1 0.8-0.4 1.5-0.9 2-0.6 0.5-1.3 0.8-2.1 0.8h-9.5c-1 0-1.9-0.4-2.5-1.1-0.7-0.7-1-1.6-1-2.6 0.1-1 0.5-1.9 1.3-2.5 0.7-0.6 1.6-0.9 2.6-0.8 0.4-1 1.2-1.8 2.1-2.3 0.9-0.6 2-0.8 3-0.7 1.1 0.1 2.1 0.6 2.9 1.3 0.8 0.7 1.3 1.7 1.5 2.7 0.8 0.1 1.4 0.5 1.9 1.1zm-8-3.9q-0.6 0.2-1.1 0.6-0.6 0.3-0.9 0.8-0.4 0.5-0.6 1.1 0 0.1-0.1 0.2 0 0.1-0.1 0.1-0.1 0.1-0.2 0.1-0.1 0-0.2 0c-0.7-0.2-1.4-0.1-2 0.3-0.6 0.4-1 1.1-1.1 1.8-0.1 0.7 0.2 1.4 0.6 2 0.5 0.5 1.2 0.8 1.9 0.8h9.5c0.5 0 1-0.2 1.4-0.6 0.4-0.4 0.6-0.9 0.6-1.4 0-0.5-0.2-1-0.6-1.4-0.4-0.4-0.9-0.6-1.4-0.6q-0.1 0-0.2 0-0.1-0.1-0.2-0.1 0-0.1-0.1-0.2 0-0.1 0-0.1-0.1-0.8-0.4-1.4-0.4-0.7-0.9-1.2-0.6-0.5-1.3-0.7-0.7-0.3-1.4-0.3-0.6 0-1.2 0.2z"/>
</svg>